<svg width="20" height="20" viewBox="0 0 20 20" fill="none" xmlns="http://www.w3.org/2000/svg">
<g id="united kingdom" clip-path="url(#clip0_2355_9854)">
<path id="Vector" d="M10 20C15.5228 20 20 15.5228 20 10C20 4.47715 15.5228 0 10 0C4.47715 0 0 4.47715 0 10C0 15.5228 4.47715 20 10 20Z" fill="#F0F0F0"/>
<g id="Group">
<path id="Vector_2" d="M2.06645 3.91187C1.28094 4.93386 0.688633 6.11179 0.34375 7.39144H5.54602L2.06645 3.91187Z" fill="#0052B4"/>
<path id="Vector_3" d="M19.6553 7.3914C19.3104 6.11179 18.7181 4.93386 17.9326 3.91187L14.4531 7.3914H19.6553Z" fill="#0052B4"/>
<path id="Vector_4" d="M0.34375 12.6084C0.688672 13.888 1.28098 15.0659 2.06645 16.0879L5.5459 12.6084H0.34375Z" fill="#0052B4"/>
<path id="Vector_5" d="M16.0889 2.06722C15.0669 1.28171 13.889 0.689404 12.6094 0.344482V5.54671L16.0889 2.06722Z" fill="#0052B4"/>
<path id="Vector_6" d="M3.91016 17.9323C4.93215 18.7178 6.11008 19.3101 7.38969 19.6551V14.4529L3.91016 17.9323Z" fill="#0052B4"/>
<path id="Vector_7" d="M7.38965 0.344482C6.11004 0.689404 4.93211 1.28171 3.91016 2.06718L7.38965 5.54667V0.344482Z" fill="#0052B4"/>
<path id="Vector_8" d="M12.6094 19.6551C13.889 19.3101 15.0669 18.7178 16.0889 17.9324L12.6094 14.4529V19.6551Z" fill="#0052B4"/>
<path id="Vector_9" d="M14.4531 12.6084L17.9326 16.0879C18.7181 15.066 19.3104 13.888 19.6553 12.6084H14.4531Z" fill="#0052B4"/>
</g>
<g id="Group_2">
<path id="Vector_10" d="M19.9154 8.69566H11.3044H11.3044V0.0846484C10.8774 0.0290625 10.4421 0 10 0C9.55785 0 9.12262 0.0290625 8.69566 0.0846484V8.69559V8.69563H0.0846484C0.0290625 9.12262 0 9.55793 0 10C0 10.4421 0.0290625 10.8774 0.0846484 11.3043H8.69559H8.69563V19.9154C9.12262 19.9709 9.55785 20 10 20C10.4421 20 10.8774 19.971 11.3043 19.9154V11.3044V11.3044H19.9154C19.9709 10.8774 20 10.4421 20 10C20 9.55793 19.9709 9.12262 19.9154 8.69566V8.69566Z" fill="#D80027"/>
<path id="Vector_11" d="M12.6094 12.6087L17.0717 17.071C17.277 16.8659 17.4727 16.6514 17.6595 16.429L13.8391 12.6086H12.6094V12.6087Z" fill="#D80027"/>
<path id="Vector_12" d="M7.39207 12.6086H7.39199L2.92969 17.0709C3.13484 17.2762 3.34934 17.472 3.57168 17.6588L7.39207 13.8383V12.6086Z" fill="#D80027"/>
<path id="Vector_13" d="M7.39 7.39166V7.39158L2.92766 2.9292C2.72242 3.13436 2.52664 3.34885 2.33984 3.57119L6.16027 7.39162H7.39V7.39166Z" fill="#D80027"/>
<path id="Vector_14" d="M12.6094 7.39102L17.0718 2.92859C16.8666 2.72336 16.6521 2.52758 16.4298 2.34082L12.6094 6.16125V7.39102Z" fill="#D80027"/>
</g>
</g>
<defs>
<clipPath id="clip0_2355_9854">
<rect width="20" height="20" fill="white"/>
</clipPath>
</defs>
</svg>
