<svg width="20" height="20" viewBox="0 0 20 20" fill="none" xmlns="http://www.w3.org/2000/svg">
<g id="russia" clip-path="url(#clip0_2355_9862)">
<path id="Vector" d="M10 20C15.5228 20 20 15.5228 20 10C20 4.47715 15.5228 0 10 0C4.47715 0 0 4.47715 0 10C0 15.5228 4.47715 20 10 20Z" fill="#F0F0F0"/>
<path id="Vector_2" d="M19.378 13.4782C19.78 12.3949 20 11.2232 20 9.99997C20 8.77677 19.78 7.60505 19.378 6.52173H0.621992C0.220039 7.60505 0 8.77677 0 9.99997C0 11.2232 0.220039 12.3949 0.621992 13.4782L10 14.3478L19.378 13.4782Z" fill="#0052B4"/>
<path id="Vector_3" d="M9.9991 20C14.2987 20 17.9642 17.2863 19.3771 13.4783H0.621094C2.03402 17.2863 5.69945 20 9.9991 20Z" fill="#D80027"/>
</g>
<defs>
<clipPath id="clip0_2355_9862">
<rect width="20" height="20" fill="white"/>
</clipPath>
</defs>
</svg>
