<svg width="20" height="20" viewBox="0 0 20 20" fill="none" xmlns="http://www.w3.org/2000/svg">
<g id="uzbekista&#204;&#129;n" clip-path="url(#clip0_2355_9858)">
<path id="Vector" d="M0.472188 6.95629C0.165859 7.91598 -3.90556e-05 8.93836 6.89667e-09 9.99965C-3.90556e-05 11.061 0.165898 12.0834 0.472227 13.0431L10 13.478L19.5278 13.0432C19.8341 12.0835 20 11.061 20 9.99973C20 8.9384 19.8341 7.91598 19.5278 6.95625L10 6.52148L0.472188 6.95629Z" fill="#F0F0F0"/>
<g id="Group">
<path id="Vector_2" d="M19.5283 6.95625L10.0005 6.52148L0.472734 6.95625C0.381953 7.24078 0.303789 7.5309 0.238281 7.82582H19.7627C19.6972 7.53086 19.6191 7.2407 19.5283 6.95625Z" fill="#D80027"/>
<path id="Vector_3" d="M0.238281 12.1741C0.303711 12.469 0.381875 12.7591 0.472656 13.0436L0.473594 13.0436L10.0004 13.4784L19.5282 13.0436C19.6189 12.7591 19.6971 12.469 19.7626 12.1741H0.238281Z" fill="#D80027"/>
</g>
<path id="Vector_4" d="M10.0004 19.9997C14.462 19.9997 18.2405 17.0777 19.5282 13.0432H0.472656C1.76035 17.0777 5.53895 19.9997 10.0004 19.9997V19.9997Z" fill="#6DA544"/>
<path id="Vector_5" d="M10.0004 3.91644e-10C5.53895 3.90629e-05 1.76043 2.92203 0.472656 6.95652L19.5282 6.95656C18.2405 2.92199 14.462 -3.90621e-05 10.0004 3.91644e-10V3.91644e-10Z" fill="#338AF3"/>
<g id="Group_2">
<path id="Vector_6" d="M4.56898 4.13056C4.56898 3.19396 5.22723 2.41153 6.10625 2.21958C5.97117 2.19005 5.83098 2.17407 5.68699 2.17407C4.60645 2.17407 3.73047 3.05001 3.73047 4.1306C3.73047 5.21118 4.60637 6.08712 5.68699 6.08712C5.83098 6.08712 5.97113 6.0711 6.10625 6.04161C5.22727 5.84958 4.56898 5.06716 4.56898 4.13056V4.13056Z" fill="#F0F0F0"/>
<path id="Vector_7" d="M7.26422 5.01953L7.39664 5.42715H7.82523L7.47852 5.6791L7.61094 6.08672L7.26422 5.8348L6.91742 6.08672L7.04988 5.6791L6.70312 5.42715H7.13172L7.26422 5.01953Z" fill="#F0F0F0"/>
<path id="Vector_8" d="M8.63133 5.01953L8.76379 5.42715H9.19238L8.84562 5.6791L8.97809 6.08672L8.63133 5.8348L8.28457 6.08672L8.41703 5.6791L8.07031 5.42715H8.49887L8.63133 5.01953Z" fill="#F0F0F0"/>
<path id="Vector_9" d="M9.99859 5.01953L10.131 5.42715H10.5596L10.2129 5.6791L10.3453 6.08672L9.99859 5.8348L9.6518 6.08672L9.7843 5.6791L9.4375 5.42715H9.86613L9.99859 5.01953Z" fill="#F0F0F0"/>
<path id="Vector_10" d="M11.3658 5.01953L11.4982 5.42715H11.9268L11.5801 5.6791L11.7125 6.08672L11.3658 5.8348L11.019 6.08672L11.1515 5.6791L10.8047 5.42715H11.2333L11.3658 5.01953Z" fill="#F0F0F0"/>
<path id="Vector_11" d="M12.7329 5.01953L12.8654 5.42715H13.2939L12.9472 5.6791L13.0797 6.08672L12.7329 5.8348L12.3861 6.08672L12.5186 5.6791L12.1719 5.42715H12.6004L12.7329 5.01953Z" fill="#F0F0F0"/>
<path id="Vector_12" d="M8.63133 3.59668L8.76379 4.00426H9.19238L8.84562 4.25625L8.97809 4.66383L8.63133 4.41191L8.28457 4.66383L8.41703 4.25625L8.07031 4.00426H8.49887L8.63133 3.59668Z" fill="#F0F0F0"/>
<path id="Vector_13" d="M9.99859 3.59668L10.131 4.00426H10.5596L10.2129 4.25625L10.3453 4.66383L9.99859 4.41191L9.6518 4.66383L9.7843 4.25625L9.4375 4.00426H9.86613L9.99859 3.59668Z" fill="#F0F0F0"/>
<path id="Vector_14" d="M11.3658 3.59668L11.4982 4.00426H11.9268L11.5801 4.25625L11.7125 4.66383L11.3658 4.41191L11.019 4.66383L11.1515 4.25625L10.8047 4.00426H11.2333L11.3658 3.59668Z" fill="#F0F0F0"/>
<path id="Vector_15" d="M12.7329 3.59668L12.8654 4.00426H13.2939L12.9472 4.25625L13.0797 4.66383L12.7329 4.41191L12.3861 4.66383L12.5186 4.25625L12.1719 4.00426H12.6004L12.7329 3.59668Z" fill="#F0F0F0"/>
<path id="Vector_16" d="M9.99859 2.17407L10.131 2.58173H10.5596L10.2129 2.83364L10.3453 3.2413L9.99859 2.98938L9.6518 3.2413L9.7843 2.83364L9.4375 2.58173H9.86613L9.99859 2.17407Z" fill="#F0F0F0"/>
<path id="Vector_17" d="M11.3658 2.17407L11.4982 2.58173H11.9268L11.5801 2.83364L11.7125 3.2413L11.3658 2.98938L11.019 3.2413L11.1515 2.83364L10.8047 2.58173H11.2333L11.3658 2.17407Z" fill="#F0F0F0"/>
<path id="Vector_18" d="M12.7329 2.17407L12.8654 2.58173H13.2939L12.9472 2.83364L13.0797 3.2413L12.7329 2.98938L12.3861 3.2413L12.5186 2.83364L12.1719 2.58173H12.6004L12.7329 2.17407Z" fill="#F0F0F0"/>
</g>
</g>
<defs>
<clipPath id="clip0_2355_9858">
<rect width="20" height="20" fill="white"/>
</clipPath>
</defs>
</svg>
